<mxfile host="app.diagrams.net" modified="2023-10-20T12:17:44.871Z" agent="Mozilla/5.0 (Windows NT 10.0; Win64; x64) AppleWebKit/537.36 (KHTML, like Gecko) Chrome/95.0.4638.69 Safari/537.36" etag="x2v-Fm3x9jf0jGwNIBoW" version="22.0.5" type="github">
  <diagram name="第 1 页" id="-vqEZoZm6Oim-to1Z_XH">
    <mxGraphModel dx="954" dy="611" grid="1" gridSize="10" guides="1" tooltips="1" connect="1" arrows="1" fold="1" page="1" pageScale="1" pageWidth="827" pageHeight="1169" math="0" shadow="0">
      <root>
        <mxCell id="0" />
        <mxCell id="1" parent="0" />
        <mxCell id="rzs64DfcW7vQMuKctaMS-4" style="edgeStyle=orthogonalEdgeStyle;rounded=0;orthogonalLoop=1;jettySize=auto;html=1;exitX=0.5;exitY=1;exitDx=0;exitDy=0;" edge="1" parent="1" source="rzs64DfcW7vQMuKctaMS-1" target="rzs64DfcW7vQMuKctaMS-2">
          <mxGeometry relative="1" as="geometry" />
        </mxCell>
        <mxCell id="rzs64DfcW7vQMuKctaMS-1" value="物料基础信息" style="rounded=0;whiteSpace=wrap;html=1;fillColor=#d5e8d4;strokeColor=#82b366;" vertex="1" parent="1">
          <mxGeometry x="280" y="160" width="120" height="60" as="geometry" />
        </mxCell>
        <mxCell id="rzs64DfcW7vQMuKctaMS-10" style="edgeStyle=orthogonalEdgeStyle;rounded=0;orthogonalLoop=1;jettySize=auto;html=1;exitX=0.5;exitY=1;exitDx=0;exitDy=0;entryX=0.5;entryY=0;entryDx=0;entryDy=0;" edge="1" parent="1" source="rzs64DfcW7vQMuKctaMS-2" target="rzs64DfcW7vQMuKctaMS-3">
          <mxGeometry relative="1" as="geometry" />
        </mxCell>
        <mxCell id="rzs64DfcW7vQMuKctaMS-2" value="物料采购" style="rounded=0;whiteSpace=wrap;html=1;fillColor=#dae8fc;strokeColor=#6c8ebf;" vertex="1" parent="1">
          <mxGeometry x="280" y="280" width="120" height="60" as="geometry" />
        </mxCell>
        <mxCell id="rzs64DfcW7vQMuKctaMS-11" style="edgeStyle=orthogonalEdgeStyle;rounded=0;orthogonalLoop=1;jettySize=auto;html=1;exitX=0;exitY=0.5;exitDx=0;exitDy=0;entryX=0.5;entryY=0;entryDx=0;entryDy=0;" edge="1" parent="1" source="rzs64DfcW7vQMuKctaMS-3" target="rzs64DfcW7vQMuKctaMS-9">
          <mxGeometry relative="1" as="geometry" />
        </mxCell>
        <mxCell id="rzs64DfcW7vQMuKctaMS-12" value="物料出库" style="edgeLabel;html=1;align=center;verticalAlign=middle;resizable=0;points=[];" vertex="1" connectable="0" parent="rzs64DfcW7vQMuKctaMS-11">
          <mxGeometry x="-0.1556" y="2" relative="1" as="geometry">
            <mxPoint as="offset" />
          </mxGeometry>
        </mxCell>
        <mxCell id="rzs64DfcW7vQMuKctaMS-14" style="edgeStyle=orthogonalEdgeStyle;rounded=0;orthogonalLoop=1;jettySize=auto;html=1;exitX=1;exitY=0.5;exitDx=0;exitDy=0;entryX=0.5;entryY=0;entryDx=0;entryDy=0;" edge="1" parent="1" source="rzs64DfcW7vQMuKctaMS-3" target="rzs64DfcW7vQMuKctaMS-13">
          <mxGeometry relative="1" as="geometry" />
        </mxCell>
        <mxCell id="rzs64DfcW7vQMuKctaMS-15" value="物料出库" style="edgeLabel;html=1;align=center;verticalAlign=middle;resizable=0;points=[];" vertex="1" connectable="0" parent="rzs64DfcW7vQMuKctaMS-14">
          <mxGeometry x="-0.1529" y="4" relative="1" as="geometry">
            <mxPoint as="offset" />
          </mxGeometry>
        </mxCell>
        <mxCell id="rzs64DfcW7vQMuKctaMS-3" value="物料库存" style="rounded=0;whiteSpace=wrap;html=1;fillColor=#fff2cc;strokeColor=#d6b656;" vertex="1" parent="1">
          <mxGeometry x="280" y="410" width="120" height="60" as="geometry" />
        </mxCell>
        <mxCell id="rzs64DfcW7vQMuKctaMS-9" value="打版" style="rounded=0;whiteSpace=wrap;html=1;" vertex="1" parent="1">
          <mxGeometry x="120" y="520" width="120" height="60" as="geometry" />
        </mxCell>
        <mxCell id="rzs64DfcW7vQMuKctaMS-13" value="生产" style="rounded=0;whiteSpace=wrap;html=1;" vertex="1" parent="1">
          <mxGeometry x="440" y="510" width="120" height="60" as="geometry" />
        </mxCell>
      </root>
    </mxGraphModel>
  </diagram>
</mxfile>
